<svg width="30" height="30" viewBox="0 0 30 30" fill="none" xmlns="http://www.w3.org/2000/svg">
<g id="arrow-up-launch 1">
<g id="SVGRepo_iconCarrier">
<path id="Vector" d="M25 5L15 15M25 5V10.625M25 5H19.375M23.75 15.625V21C23.75 22.4001 23.75 23.1002 23.4775 23.635C23.2379 24.1054 22.8554 24.4879 22.385 24.7275C21.8502 25 21.1501 25 19.75 25H9C7.59987 25 6.8998 25 6.36502 24.7275C5.89461 24.4879 5.51216 24.1054 5.27249 23.635C5 23.1002 5 22.4001 5 21V10.25C5 8.84987 5 8.1498 5.27249 7.61502C5.51216 7.14461 5.89461 6.76216 6.36502 6.52249C6.8998 6.25 7.59986 6.25 9 6.25H14.375" stroke="white" stroke-width="1.6" stroke-linecap="round" stroke-linejoin="round"/>
</g>
</g>
</svg>
